<?xml version="1.0" encoding="UTF-8"?>
<svg id="Camada_1" data-name="Camada 1" xmlns="http://www.w3.org/2000/svg" viewBox="0 0 60 60">
  <defs>
    <style>
      .cls-1 {
        fill: #fff3e1;
      }
    </style>
  </defs>
  <path class="cls-1" d="M22.19,31.25h-5.29v6.08h5.19c.48,0,.94-.04,1.36-.14.43-.1.82-.25,1.15-.47.33-.21.59-.51.79-.88.2-.37.29-.85.29-1.43,0-1.14-.32-1.95-.96-2.44-.64-.48-1.49-.72-2.53-.72Z"/>
  <path class="cls-1" d="M23.97,27.31c.56-.41.83-1.08.83-2.01,0-.51-.09-.94-.27-1.27-.19-.33-.44-.59-.75-.77-.31-.19-.66-.32-1.07-.39-.4-.08-.82-.11-1.25-.11h-4.55v5.16h4.92c.86,0,1.57-.2,2.14-.62Z"/>
  <path class="cls-1" d="M40.03,27.97c-.7,0-1.28.12-1.75.36-.45.24-.83.53-1.11.88-.28.35-.48.73-.59,1.13-.11.39-.18.74-.2,1.05h7.14c-.1-1.12-.49-1.95-1.01-2.53-.52-.58-1.41-.89-2.48-.89Z"/>
  <path class="cls-1" d="M48.73,0H11.27C5.07,0,0,5.07,0,11.27v37.46c0,6.2,5.07,11.27,11.27,11.27h37.46c6.2,0,11.27-5.07,11.27-11.27V11.27c0-6.2-5.07-11.27-11.27-11.27ZM35.48,20.49h8.95v2.18h-8.95v-2.18ZM29.89,37.58c-.43.82-1.02,1.49-1.75,2-.73.52-1.57.9-2.51,1.15-.93.25-1.9.37-2.89.37h-10.7v-22.08h10.41c1.06,0,2.01.09,2.88.28.87.18,1.61.49,2.23.91.61.42,1.1.98,1.44,1.68.34.69.51,1.56.51,2.59,0,1.11-.25,2.04-.76,2.78-.51.74-1.26,1.35-2.25,1.82,1.36.39,2.37,1.08,3.03,2.06.67.98,1,2.16,1,3.54,0,1.12-.21,2.08-.64,2.89ZM47.91,34.15h-11.54c0,1.26.43,2.46,1.09,3.1.66.64,1.61.97,2.84.97.89,0,1.65-.22,2.29-.67.64-.45,1.02-.92,1.17-1.42h3.87c-.62,1.92-1.56,3.3-2.85,4.13-1.27.83-2.82,1.24-4.63,1.24-1.26,0-2.39-.2-3.41-.61-1.02-.41-1.87-.98-2.58-1.72-.7-.75-1.24-1.63-1.62-2.66-.38-1.03-.57-2.17-.57-3.41s.2-2.31.59-3.34c.4-1.04.95-1.93,1.67-2.68.73-.75,1.59-1.35,2.59-1.78,1-.43,2.11-.65,3.33-.65,1.35,0,2.54.26,3.55.79,1.01.52,1.84,1.23,2.49,2.12.65.89,1.12,1.9,1.41,3.03.29,1.13.39,2.32.31,3.56Z"/>
</svg>