<?xml version="1.0" encoding="UTF-8"?>
<svg id="Camada_1" data-name="Camada 1" xmlns="http://www.w3.org/2000/svg" viewBox="0 0 60 60">
  <defs>
    <style>
      .cls-1 {
        fill: #fff3e1;
      }
    </style>
  </defs>
  <path class="cls-1" d="M30.39,24.28c-3.16,0-5.76,2.59-5.76,5.66,0,3.25,2.55,5.81,5.8,5.8,3.1,0,5.7-2.58,5.7-5.67.1-3.04-2.53-5.79-5.74-5.79Z"/>
  <path class="cls-1" d="M44.3,21.51c-.16-1.51-.78-2.84-1.94-3.88-1.28-1.15-2.84-1.59-4.5-1.63-4.22-.08-8.43-.14-12.65-.12-1.55.01-3.11.02-4.63.51-2.57.82-3.97,2.77-4.16,5.19-.24,3.03-.2,14.89,0,16.85.18,1.66.87,3.14,2.27,4.21,1.37,1.05,2.96,1.37,4.59,1.41,5.18.12,10.36.31,15.54-.16,1.17-.11,2.23-.51,3.17-1.21,1.79-1.33,2.41-3.27,2.46-5.36.1-3.88.08-7.77.06-11.65,0-1.39-.07-2.79-.22-4.17ZM30.33,38.91c-4.91-.04-8.95-4.05-8.89-8.98.06-4.94,4.05-8.86,8.97-8.8,4.82-.04,8.92,3.93,8.9,8.93-.02,4.98-4.18,8.89-8.98,8.85ZM39.62,22.83c-1.16.11-2.08-.94-2.11-2.04-.03-1.13.99-2.13,2.13-2.11,1.17.02,2.16.99,2.11,2.13-.04,1.05-.89,2.12-2.13,2.02Z"/>
  <path class="cls-1" d="M48.73,0H11.27C5.07,0,0,5.07,0,11.27v37.46c0,6.2,5.07,11.27,11.27,11.27h37.46c6.2,0,11.27-5.07,11.27-11.27V11.27c0-6.2-5.07-11.27-11.27-11.27ZM47.6,37.45c-.03,1.86-.44,3.64-1.42,5.25-1.17,1.93-2.84,3.21-5,3.9-1.96.63-3.98.65-6,.66-3.85,0-7.7,0-11.54-.03-2.02-.01-3.98-.35-5.76-1.36-2.08-1.17-3.47-2.91-4.18-5.21-.48-1.55-.57-3.13-.65-4.73-.01-.28-.04-9.34.03-12.57.04-2.22.39-4.4,1.65-6.31,1.17-1.77,2.77-2.97,4.79-3.65,1.98-.67,4.02-.67,6.06-.67,3.92,0,7.84,0,11.76.04,2.2.02,4.31.49,6.17,1.73,2.1,1.4,3.38,3.39,3.81,5.86.25,1.46.37,2.95.38,4.43.02,4.22-.03,8.44-.09,12.66Z"/>
</svg>