<?xml version="1.0" encoding="UTF-8"?>
<svg id="Camada_1" data-name="Camada 1" xmlns="http://www.w3.org/2000/svg" viewBox="0 0 60 60">
  <defs>
    <style>
      .cls-1 {
        fill: #fff3e1;
      }
    </style>
  </defs>
  <path class="cls-1" d="M48.73,0H11.27C5.07,0,0,5.07,0,11.27v37.46c0,6.2,5.07,11.27,11.27,11.27h37.46c6.2,0,11.27-5.07,11.27-11.27V11.27c0-6.2-5.07-11.27-11.27-11.27ZM21.19,46.73h-7.23v-22.01h7.23v22.01ZM17.58,22.04c-2.21,0-4.01-1.79-4.01-4.01s1.79-4.01,4.01-4.01,4.01,1.79,4.01,4.01-1.79,4.01-4.01,4.01ZM46.43,35.11v11.63h-7.23v-11.63c0-4.04-1.87-4.76-3.34-4.76s-3.38.72-3.58,3.49v12.9h-7.23v-22.01h7.23v2.5c1.37-1.7,3.32-3.02,6.11-3.02,7.73,0,8.05,7.03,8.05,7.03v3.88Z"/>
</svg>