<?xml version="1.0" encoding="UTF-8"?>
<svg id="Camada_1" data-name="Camada 1" xmlns="http://www.w3.org/2000/svg" viewBox="0 0 60 60">
  <defs>
    <style>
      .cls-1 {
        fill: #fff3e1;
      }
    </style>
  </defs>
  <path class="cls-1" d="M48.73,0H11.27C5.07,0,0,5.07,0,11.27v37.46c0,6.2,5.07,11.27,11.27,11.27h37.46c6.2,0,11.27-5.07,11.27-11.27V11.27c0-6.2-5.07-11.27-11.27-11.27ZM45.03,26.65h0c-.29.03-.58.04-.86.04-3.16,0-6.11-1.59-7.85-4.24v14.44c0,5.9-4.78,10.67-10.67,10.67s-10.67-4.78-10.67-10.67,4.78-10.67,10.67-10.67c.22,0,.44.02.66.03v5.26c-.22-.03-.43-.07-.66-.07-3.01,0-5.45,2.44-5.45,5.45s2.44,5.45,5.45,5.45,5.67-2.37,5.67-5.38l.05-24.53h5.03c.47,4.51,4.11,8.04,8.64,8.37v5.85Z"/>
</svg>