<?xml version="1.0" encoding="UTF-8"?>
<svg id="Camada_1" data-name="Camada 1" xmlns="http://www.w3.org/2000/svg" viewBox="0 0 60 60">
  <defs>
    <style>
      .cls-1 {
        fill: #fff3e1;
      }
    </style>
  </defs>
  <path class="cls-1" d="M59.86,48.64V11.36C59.86,5.19,54.81.14,48.64.14H11.36C5.19.14.14,5.19.14,11.36v37.28c0,6.17,5.05,11.22,11.22,11.22h37.28c6.17,0,11.22-5.05,11.22-11.22ZM13.15,29.36c0-9.47,7.7-17.17,17.17-17.17s17.17,7.7,17.17,17.17-7.7,17.17-17.17,17.17c-2.67,0-5.32-.63-7.69-1.82l-9.88,3.1,2.97-9.41c-1.69-2.72-2.58-5.83-2.58-9.05Z"/>
  <path class="cls-1" d="M18.93,37.96l-1.71,5.4,5.71-1.79.54.3c2.09,1.15,4.46,1.75,6.85,1.75,7.86,0,14.26-6.4,14.26-14.26s-6.4-14.26-14.26-14.26-14.26,6.4-14.26,14.26c0,2.87.85,5.64,2.46,8.01l.4.58ZM23.25,22.65c1.05-1.08,2.88-.72,3.47.67l.8,1.89c.3.71.15,1.53-.37,2.09l-.29.31c-.34.36-.4.89-.15,1.31.65,1.12,2.15,3.24,4.72,4.41.71.32,1.55.07,2.01-.56l.31-.42c.44-.61,1.25-.81,1.93-.5l1.8.84c1.46.69,1.82,2.64.65,3.76-.84.8-2,1.43-3.52,1.23-3.66-.49-6.36-2.56-7.47-3.56-1.11-1-4.34-4.64-5.07-7.98-.32-1.46.33-2.63,1.17-3.49Z"/>
</svg>