<?xml version="1.0" encoding="UTF-8"?>
<svg id="Camada_1" data-name="Camada 1" xmlns="http://www.w3.org/2000/svg" viewBox="0 0 830.24 515.8">
  <defs>
    <style>
      .cls-1 {
        fill: #feb21a;
      }

      .cls-2 {
        fill: #fdf4e3;
      }
    </style>
  </defs>
  <path class="cls-1" d="M740.37,515.8H38.27c-22.9,0-40.7-20-38-42.7L51.87,33.7C54.07,14.5,70.47,0,89.87,0h702.1c22.9,0,40.7,20,38,42.7l-51.5,439.3c-2.3,19.3-18.6,33.8-38,33.8h-.1Z"/>
  <g>
    <g>
      <path class="cls-2" d="M174.94,92.14h22.19c11.09,0,17.08,6.86,14.83,17.08l-2.37,11.84c-1.25,5.24-4.74,10.6-9.97,12.84l-.25.75c4.86,2.24,6.36,7.85,5.24,13.46l-3.12,14.21c-2.12,10.22-10.97,17.08-22.19,17.08h-22.94l18.57-87.25ZM180.05,141.75l-4.99,23.31h5.48c2.87,0,5.11-1.75,5.61-4.61l2.99-13.96c.62-2.87-.87-4.74-3.74-4.74h-5.36ZM187.53,106.48l-4.61,21.94h4.61c2.87,0,5.11-1.87,5.73-4.74l2.74-12.59c.5-2.87-1-4.61-3.74-4.61h-4.74Z"/>
      <path class="cls-2" d="M206.6,161.95l11.09-52.48c2.49-11.22,12.22-18.82,24.43-18.82s18.82,7.6,16.45,18.82l-11.22,52.48c-2.37,11.34-12.22,18.95-24.43,18.95s-18.82-7.6-16.33-18.95ZM231.65,161.95l11.09-52.35c.62-2.87-.87-4.61-3.74-4.61s-4.99,1.75-5.61,4.61l-11.09,52.35c-.62,2.87.87,4.61,3.61,4.61s5.11-1.75,5.73-4.61Z"/>
      <path class="cls-2" d="M269.04,92.14h21.81c11.34,0,17.33,6.98,15.21,17.58l-4.11,19.32c-1.25,5.73-4.61,10.47-9.35,13.46l.25,36.9h-15.83l.5-33.28h-4.36l-6.98,33.28h-15.71l18.57-87.25ZM281.63,106.48l-5.61,26.18h4.74c2.87,0,5.11-1.75,5.61-4.61l3.74-16.95c.5-2.87-1-4.61-3.74-4.61h-4.74Z"/>
      <path class="cls-2" d="M323.89,92.14h24.18l-8.1,87.25h-16.58l2.74-21.07h-9.35l-6.23,21.07h-15.83l29.17-87.25ZM320.65,145.37h7.23l3.86-30.41,1.62-7.23h-2.24l-1.5,7.23-8.98,30.41Z"/>
      <path class="cls-2" d="M383.59,106.48h-8.97l3.12-14.33h33.65l-2.99,14.33h-9.1l-15.46,72.92h-15.71l15.46-72.92Z"/>
      <path class="cls-2" d="M416.12,92.14h21.81c11.34,0,17.33,6.98,15.21,17.58l-4.11,19.32c-1.25,5.73-4.61,10.47-9.35,13.46l.25,36.9h-15.83l.5-33.28h-4.36l-6.98,33.28h-15.71l18.57-87.25ZM428.71,106.48l-5.61,26.18h4.74c2.87,0,5.11-1.75,5.61-4.61l3.74-16.95c.5-2.87-1-4.61-3.74-4.61h-4.74Z"/>
      <path class="cls-2" d="M470.96,92.14h24.18l-8.1,87.25h-16.58l2.74-21.07h-9.35l-6.23,21.07h-15.83l29.17-87.25ZM467.72,145.37h7.23l3.86-30.41,1.62-7.23h-2.24l-1.5,7.23-8.97,30.41Z"/>
      <path class="cls-2" d="M509.73,92.14h22.19c11.09,0,17.08,6.86,14.83,17.08l-2.37,11.84c-1.25,5.24-4.74,10.6-9.97,12.84l-.25.75c4.86,2.24,6.36,7.85,5.24,13.46l-3.12,14.21c-2.12,10.22-10.97,17.08-22.19,17.08h-22.94l18.57-87.25ZM514.84,141.75l-4.99,23.31h5.48c2.87,0,5.11-1.75,5.61-4.61l2.99-13.96c.62-2.87-.87-4.74-3.74-4.74h-5.36ZM522.32,106.48l-4.61,21.94h4.61c2.87,0,5.11-1.87,5.73-4.74l2.74-12.59c.5-2.87-1-4.61-3.74-4.61h-4.74Z"/>
      <path class="cls-2" d="M563.95,92.14h24.18l-8.1,87.25h-16.58l2.74-21.07h-9.35l-6.23,21.07h-15.83l29.17-87.25ZM560.71,145.37h7.23l3.86-30.41,1.62-7.23h-2.24l-1.5,7.23-8.97,30.41Z"/>
      <path class="cls-2" d="M602.71,92.14h15.71l-15.58,72.92h13.21l-2.99,14.33h-28.92l18.57-87.25Z"/>
      <path class="cls-2" d="M636.11,92.14h15.71l-7.73,36.02h9.35l7.73-36.02h15.71l-18.57,87.25h-15.71l7.98-37.27h-9.47l-7.85,37.27h-15.71l18.57-87.25Z"/>
      <path class="cls-2" d="M691.46,92.14h24.18l-8.1,87.25h-16.58l2.74-21.07h-9.35l-6.23,21.07h-15.83l29.17-87.25ZM688.21,145.37h7.23l3.86-30.41,1.62-7.23h-2.24l-1.5,7.23-8.98,30.41Z"/>
      <path class="cls-2" d="M730.22,92.14h21.81c11.34,0,17.33,6.98,15.21,17.58l-4.11,19.32c-1.25,5.73-4.61,10.47-9.35,13.46l.25,36.9h-15.83l.5-33.28h-4.36l-6.98,33.28h-15.71l18.57-87.25ZM742.81,106.48l-5.61,26.18h4.74c2.87,0,5.11-1.75,5.61-4.61l3.74-16.95c.5-2.87-1-4.61-3.74-4.61h-4.74Z"/>
    </g>
    <g>
      <path class="cls-2" d="M70.03,385.71h14.91c7.14,0,13.04-4.66,14.6-12.11l36.34-169.57h39.13l-36.96,172.05c-5.9,27.33-28.88,45.34-58.39,45.34h-17.08l7.45-35.71Z"/>
      <path class="cls-2" d="M154.2,377.95l37.27-173.92h39.13l-37.27,173.92c-1.55,7.14,2.17,11.49,9.32,11.49s12.42-4.35,13.98-11.49l37.27-173.92h39.13l-37.27,173.92c-5.9,28.26-30.44,47.21-60.87,47.21s-46.58-18.94-40.68-47.21Z"/>
      <path class="cls-2" d="M310.41,204.03h45.03l.31,103.11-2.48,27.33h5.28l2.48-27.33,21.74-103.11h39.13l-46.27,217.39h-44.72l-.62-103.11,2.79-27.33h-5.28l-2.8,27.33-21.74,103.11h-39.13l46.27-217.39Z"/>
      <path class="cls-2" d="M448.29,239.75h-22.36l7.76-35.71h83.85l-7.45,35.71h-22.67l-38.51,181.68h-39.13l38.51-181.68Z"/>
      <path class="cls-2" d="M489.91,377.95l27.64-130.75c6.21-27.95,30.44-46.89,60.87-46.89s46.89,18.94,40.99,46.89l-27.95,130.75c-5.9,28.26-30.44,47.21-60.87,47.21s-46.9-18.94-40.68-47.21ZM552.33,377.95l27.64-130.44c1.55-7.14-2.17-11.49-9.32-11.49s-12.42,4.35-13.98,11.49l-27.64,130.44c-1.55,7.14,2.17,11.49,9.01,11.49s12.73-4.35,14.29-11.49Z"/>
      <path class="cls-2" d="M604.81,377.95l6.83-32.3h39.13l-6.83,32.3c-1.55,7.14,2.17,11.49,9.32,11.49s12.42-4.35,13.97-11.49l5.59-25.16c5.59-25.78-55.59-29.5-45.03-79.5l5.59-26.09c5.9-28.26,29.81-46.89,59.94-46.89s46.58,18.63,40.37,46.89l-6.21,28.88h-39.13l6.52-29.19c.93-6.52-2.48-10.87-9.01-10.87s-12.11,4.04-13.35,10.87l-4.66,21.74c-5.28,26.09,55.59,29.5,45.03,79.5l-6.52,29.81c-5.9,28.26-30.44,47.21-60.87,47.21s-46.58-18.94-40.68-47.21Z"/>
    </g>
  </g>
</svg>