<?xml version="1.0" encoding="UTF-8"?>
<svg id="Camada_1" xmlns="http://www.w3.org/2000/svg" version="1.1" viewBox="0 0 460.5 210.8">
  <!-- Generator: Adobe Illustrator 29.8.3, SVG Export Plug-In . SVG Version: 2.1.1 Build 3)  -->
  <defs>
    <style>
      .st0 {
        fill: #fcf4e2;
      }
    </style>
  </defs>
  <g>
    <path class="st0" d="M190.7,193.1h-1l-.9,4.4h1c.5,0,1-.3,1.1-.9l.6-2.6c.1-.5-.2-.9-.7-.9Z"/>
    <path class="st0" d="M191.9,186.5h-.9l-.9,4.1h.9c.5,0,1-.4,1.1-.9l.5-2.4c0-.5-.2-.9-.7-.9Z"/>
    <path class="st0" d="M320,186.2c-.5,0-.9.3-1.1.9l-2.1,9.8c-.1.5.2.9.7.9s1-.3,1.1-.9l2.1-9.8c.1-.5-.2-.9-.7-.9Z"/>
    <polygon class="st0" points="208.9 188.1 207.2 193.8 208.6 193.8 209.3 188.1 209.6 186.7 209.2 186.7 208.9 188.1"/>
    <polygon class="st0" points="278.5 194.7 279.4 188.1 279.7 186.5 279.2 186.5 278.9 188.1 276.9 194.7 278.5 194.7"/>
    <path class="st0" d="M228.1,186.5h-.9l-2.3,11h.9c.5,0,.9-.3,1.1-.9l2-9.3c0-.5-.2-.9-.7-.9Z"/>
    <path class="st0" d="M200.8,186.5h-.9l-1.1,4.9h.9c.5,0,1-.3,1.1-.9l.7-3.2c0-.5-.2-.9-.7-.9Z"/>
    <polygon class="st0" points="39.7 188.1 38 193.8 39.3 193.8 40.1 188.1 40.4 186.7 40 186.7 39.7 188.1"/>
    <path class="st0" d="M31.5,186.5h-.9l-1.1,4.9h.9c.5,0,1-.3,1.1-.9l.7-3.2c0-.5-.2-.9-.7-.9Z"/>
    <polygon class="st0" points="164.3 194.7 165.1 188.1 165.5 186.5 165 186.5 164.7 188.1 162.7 194.7 164.3 194.7"/>
    <path class="st0" d="M49.1,186.5h-.9l-1.1,5.2h.9c.5,0,1-.3,1.1-.9l.7-3.5c0-.5-.2-.9-.7-.9Z"/>
    <path class="st0" d="M136.8,186.5h-.9l-1.1,4.9h.9c.5,0,1-.3,1.1-.9l.7-3.2c0-.5-.2-.9-.7-.9Z"/>
    <path class="st0" d="M83.2,186.5h-.9l-2.3,11h.9c.5,0,.9-.3,1.1-.9l2-9.3c0-.5-.2-.9-.7-.9Z"/>
    <path class="st0" d="M416.3,174.4H13.5c-1.8,0-3.4,1.2-4,2.9L.2,205.3c-.9,2.7,1.1,5.5,4,5.5h402.7c1.8,0,3.4-1.2,4-2.9l9.3-28c.9-2.7-1.1-5.5-4-5.5ZM21.5,200.2l.2-.9v-.3c.1,0-.1,0-.1,0v.3c-.6.7-1.6,1.1-2.6,1.1-1.9,0-2.8-1.3-2.4-3.2l2.2-10.2c.5-2.1,2.3-3.5,4.6-3.5s3.5,1.4,3.1,3.5l-.4,2.1h-2.9l.4-2.1c.1-.5-.2-.9-.7-.9s-.9.3-1.1.9l-2.1,9.8c-.1.5.2.9.7.9s1-.3,1.1-.9l.8-3.8h-.9l.5-2.4h3.8l-2,9.5h-2ZM29.8,200.2v-6.3c0,0-.7,0-.7,0l-1.3,6.3h-2.9l3.5-16.4h4.1c2.1,0,3.3,1.3,2.9,3.3l-.8,3.6c-.2,1.1-.9,2-1.8,2.5v6.9s-2.9,0-2.9,0ZM38.5,200.2l.5-4h-1.8l-1.2,4h-3l5.5-16.4h4.5l-1.5,16.4h-3.1ZM47.6,194.4h-1.1l-1.2,5.8h-2.9l3.5-16.4h4c2.2,0,3.3,1.4,2.9,3.4l-.8,3.9c-.4,2-2.2,3.4-4.4,3.4ZM55.7,200.2l1.5-7h-1.8l-1.5,7h-2.9l3.5-16.4h2.9l-1.5,6.8h1.8l1.5-6.8h2.9l-3.5,16.4h-2.9ZM60,200.2l3.5-16.4h2.9l-3.5,16.4h-2.9ZM74.7,187.1l-.7,3.4h-2.9l.7-3.4c.1-.5-.2-.9-.7-.9s-.9.3-1.1.9l-2.1,9.8c-.1.5.2.9.7.9s1-.3,1.1-.9l.8-3.6h2.9l-.8,3.6c-.4,2.1-2.3,3.6-4.6,3.6s-3.5-1.4-3.1-3.6l2.1-9.9c.5-2.1,2.3-3.5,4.6-3.5s3.5,1.4,3.1,3.5ZM80.4,200.2h-4l3.5-16.4h4c2.2,0,3.3,1.4,2.9,3.4l-2,9.6c-.4,2-2.2,3.4-4.4,3.4ZM91.5,197.5l-.6,2.7h-5.6l3.5-16.4h5.6l-.6,2.7h-2.6l-.9,4.1h2.4l-.6,2.6h-2.4l-.9,4.3h2.6ZM95.5,200.5c-2.3,0-3.5-1.4-3.1-3.6l.5-2.4h2.9l-.5,2.4c-.1.5.2.9.7.9s.9-.3,1.1-.9l.4-1.9c.4-1.9-4.2-2.2-3.4-6l.4-2c.4-2.1,2.2-3.5,4.5-3.5s3.5,1.4,3,3.5l-.5,2.2h-2.9l.5-2.2c0-.5-.2-.8-.7-.8s-.9.3-1,.8l-.4,1.6c-.4,2,4.2,2.2,3.4,6l-.5,2.2c-.4,2.1-2.3,3.6-4.6,3.6ZM100.5,200.2l3.5-16.4h2.9l-3.5,16.4h-2.9ZM110.3,200.2l.2-.9v-.3c.1,0-.1,0-.1,0v.3c-.6.7-1.6,1.1-2.6,1.1-1.9,0-2.8-1.3-2.4-3.2l2.2-10.2c.5-2.1,2.3-3.5,4.6-3.5s3.5,1.4,3.1,3.5l-.4,2.1h-2.9l.4-2.1c.1-.5-.2-.9-.7-.9s-.9.3-1.1.9l-2.1,9.8c-.1.5.2.9.7.9s1-.3,1.1-.9l.8-3.8h-.9l.5-2.4h3.8l-2,9.5h-2ZM118.7,200.2v-7.8s.2-2.1.2-2.1h-.4l-.2,2.1-1.6,7.8h-2.9l3.5-16.4h3.4v7.8s-.2,2.1-.2,2.1h.4l.2-2.1,1.6-7.8h2.9l-3.5,16.4h-3.4ZM129,200.2h-5.6l3.5-16.4h5.6l-.6,2.7h-2.6l-.9,4.1h2.4l-.6,2.6h-2.4l-.9,4.3h2.6l-.6,2.7ZM140.5,187.1l-.8,3.6c-.2,1.1-.9,2-1.8,2.5v6.9s-2.9,0-2.9,0v-6.3c0,0-.7,0-.7,0l-1.3,6.3h-2.9l3.5-16.4h4.1c2.1,0,3.3,1.3,2.9,3.3ZM166.9,202.1h-3.6l.6-4.6h-2l-1.4,4.6h-3.4l6.3-19h5.3l-1.8,19ZM189.5,200.2h-4.3l3.5-16.4h4.2c2.1,0,3.2,1.3,2.8,3.2l-.4,2.2c-.2,1-.9,2-1.9,2.4h0c.9.6,1.2,1.6,1,2.7l-.6,2.7c-.4,1.9-2.1,3.2-4.2,3.2ZM199,200.2v-6.3c0,0-.7,0-.7,0l-1.3,6.3h-2.9l3.5-16.4h4.1c2.1,0,3.3,1.3,2.9,3.3l-.8,3.6c-.2,1.1-.9,2-1.8,2.5v6.9s-2.9,0-2.9,0ZM207.7,200.2l.5-4h-1.8l-1.2,4h-3l5.5-16.4h4.5l-1.5,16.4h-3.1ZM216.6,200.2v-7.8s.2-2.1.2-2.1h-.4l-.2,2.1-1.6,7.8h-2.9l3.5-16.4h3.4v7.8s-.2,2.1-.2,2.1h.4l.2-2.1,1.6-7.8h2.9l-3.5,16.4h-3.4ZM225.4,200.2h-4l3.5-16.4h4c2.2,0,3.3,1.4,2.9,3.4l-2,9.6c-.4,2-2.2,3.4-4.4,3.4ZM230.3,200.2l3.5-16.4h2.9l-3.5,16.4h-2.9ZM239.6,200.2v-7.8s.2-2.1.2-2.1h-.4l-.2,2.1-1.6,7.8h-2.9l3.5-16.4h3.4v7.8s-.2,2.1-.2,2.1h.4l.2-2.1,1.6-7.8h2.9l-3.5,16.4h-3.4ZM254.7,187.1l-.4,2.1h-2.9l.4-2.1c.1-.5-.2-.9-.7-.9s-.9.3-1.1.9l-2.1,9.8c-.1.5.2.9.7.9s1-.3,1.1-.9l.8-3.8h-.9l.5-2.4h3.8l-2,9.5h-2l.2-.9v-.3c.1,0-.1,0-.1,0v.3c-.6.7-1.6,1.1-2.6,1.1-1.9,0-2.8-1.3-2.4-3.2l2.2-10.2c.5-2.1,2.3-3.5,4.6-3.5s3.5,1.4,3.1,3.5ZM281.1,202.1h-3.6l.6-4.6h-2l-1.4,4.6h-3.4l6.3-19h5.3l-1.8,19ZM309,200.2l2.5-11.8.3-1.3h-.4l-.3,1.3-3.5,11.8h-3.8l1.5-11.8.3-1.3h-.4l-.3,1.3-2.5,11.8h-2.9l3.5-16.4h5.3l-1.5,10.9-.5,2.6h.4l.6-2.6,3.2-10.9h5.2l-3.5,16.4h-2.9ZM317,200.5c-2.3,0-3.5-1.4-3.1-3.6l2.1-9.9c.5-2.1,2.3-3.5,4.6-3.5s3.5,1.4,3.1,3.5l-2.1,9.9c-.4,2.1-2.3,3.6-4.6,3.6ZM323.3,200.2l2.9-13.7h-1.7l.6-2.7h6.3l-.6,2.7h-1.7l-2.9,13.7h-2.9ZM328.8,200.2l3.5-16.4h2.9l-3.5,16.4h-2.9ZM336.8,200.5c-2.3,0-3.5-1.4-3.1-3.6l2.1-9.9c.5-2.1,2.3-3.5,4.6-3.5s3.5,1.4,3.1,3.5l-2.1,9.9c-.4,2.1-2.3,3.6-4.6,3.6ZM350.3,200.2h-3.4v-7.8s.2-2.1.2-2.1h-.4l-.2,2.1-1.6,7.8h-2.9l3.5-16.4h3.4v7.8s-.2,2.1-.2,2.1h.4l.2-2.1,1.6-7.8h2.9l-3.5,16.4ZM359,200.2h-4l3.5-16.4h4c2.2,0,3.3,1.4,2.9,3.4l-2,9.6c-.4,2-2.2,3.4-4.4,3.4ZM370.1,197.5l-.6,2.7h-5.6l3.5-16.4h5.6l-.6,2.7h-2.6l-.9,4.1h2.4l-.6,2.6h-2.4l-.9,4.3h2.6ZM374,200.5c-2.3,0-3.5-1.4-3.1-3.6l.5-2.4h2.9l-.5,2.4c-.1.5.2.9.7.9s.9-.3,1.1-.9l.4-1.9c.4-1.9-4.2-2.2-3.4-6l.4-2c.4-2.1,2.2-3.5,4.5-3.5s3.5,1.4,3,3.5l-.5,2.2h-3l.5-2.2c0-.5-.2-.8-.7-.8s-.9.3-1,.8l-.4,1.6c-.4,2,4.2,2.2,3.4,6l-.5,2.2c-.4,2.1-2.3,3.6-4.6,3.6ZM379,200.2l3.5-16.4h3l-3.5,16.4h-2.9ZM388.9,200.2l.2-.9v-.3c.1,0-.1,0-.1,0v.3c-.6.7-1.6,1.1-2.6,1.1-1.9,0-2.8-1.3-2.4-3.2l2.2-10.2c.5-2.1,2.3-3.5,4.6-3.5s3.5,1.4,3.1,3.5l-.4,2.1h-2.9l.4-2.1c.1-.5-.2-.9-.7-.9s-.9.3-1.1.9l-2.1,9.8c-.1.5.2.9.7.9s1-.3,1.1-.9l.8-3.8h-.9l.5-2.4h3.8l-2,9.5h-2ZM400.6,200.2h-3.4v-7.8s.2-2.1.2-2.1h-.4l-.2,2.1-1.6,7.8h-2.9l3.5-16.4h3.4v7.8s-.2,2.1-.2,2.1h.4l.2-2.1,1.6-7.8h2.9l-3.5,16.4Z"/>
    <path class="st0" d="M361.7,186.5h-.9l-2.3,11h.9c.5,0,.9-.3,1.1-.9l2-9.3c0-.5-.2-.9-.7-.9Z"/>
    <path class="st0" d="M339.8,186.2c-.5,0-.9.3-1.1.9l-2.1,9.8c-.1.5.2.9.7.9s1-.3,1.1-.9l2.1-9.8c.1-.5-.2-.9-.7-.9Z"/>
  </g>
  <g>
    <path class="st0" d="M67.9,3h21.3l-7.1,76.9h-14.6l2.4-18.6h-8.2l-5.5,18.6h-13.9L67.9,3ZM65,49.9h6.4l3.4-26.8,1.4-6.4h-2l-1.3,6.4-7.9,26.8Z"/>
    <path class="st0" d="M109.2,3h21.3l-7.1,76.9h-14.6l2.4-18.6h-8.2l-5.5,18.6h-13.9L109.2,3ZM106.3,49.9h6.4l3.4-26.8,1.4-6.4h-2l-1.3,6.4-7.9,26.8Z"/>
    <path class="st0" d="M150.5,3h21.3l-7.1,76.9h-14.6l2.4-18.6h-8.2l-5.5,18.6h-13.9L150.5,3ZM147.6,49.9h6.4l3.4-26.8,1.4-6.4h-2l-1.3,6.4-7.9,26.8Z"/>
    <path class="st0" d="M191.8,3h21.3l-7.1,76.9h-14.6l2.4-18.6h-8.2l-5.5,18.6h-13.9L191.8,3ZM188.9,49.9h6.4l3.4-26.8,1.4-6.4h-2l-1.3,6.4-7.9,26.8Z"/>
    <path class="st0" d="M233,3h21.3l-7.1,76.9h-14.6l2.4-18.6h-8.2l-5.5,18.6h-13.9L233,3ZM230.2,49.9h6.4l3.4-26.8,1.4-6.4h-2l-1.3,6.4-7.9,26.8Z"/>
    <path class="st0" d="M274.3,3h21.3l-7.1,76.9h-14.6l2.4-18.6h-8.2l-5.5,18.6h-13.9L274.3,3ZM271.5,49.9h6.4l3.4-26.8,1.4-6.4h-2l-1.3,6.4-7.9,26.8Z"/>
    <path class="st0" d="M315.6,3h21.3l-7.1,76.9h-14.6l2.4-18.6h-8.2l-5.5,18.6h-13.9L315.6,3ZM312.8,49.9h6.4l3.4-26.8,1.4-6.4h-2l-1.3,6.4-7.9,26.8Z"/>
    <path class="st0" d="M356.9,3h21.3l-7.1,76.9h-14.6l2.4-18.6h-8.2l-5.5,18.6h-13.9L356.9,3ZM354.1,49.9h6.4l3.4-26.8,1.4-6.4h-2l-1.3,6.4-7.9,26.8Z"/>
    <path class="st0" d="M398.2,3h21.3l-7.1,76.9h-14.6l2.4-18.6h-8.2l-5.5,18.6h-13.9L398.2,3ZM395.3,49.9h6.4l3.4-26.8,1.4-6.4h-2l-1.3,6.4-7.9,26.8Z"/>
    <path class="st0" d="M439.5,3h21.3l-7.1,76.9h-14.6l2.4-18.6h-8.2l-5.5,18.6h-13.9L439.5,3ZM436.6,49.9h6.4l3.4-26.8,1.4-6.4h-2l-1.3,6.4-7.9,26.8Z"/>
  </g>
  <g>
    <path class="st0" d="M39.6,86.6h21.8l-7.3,78.6h-14.9l2.5-19h-8.4l-5.6,19h-14.3l26.3-78.6ZM36.7,134.5h6.5l3.5-27.4,1.5-6.5h-2l-1.3,6.5-8.1,27.4Z"/>
    <path class="st0" d="M81.9,86.6h21.8l-7.3,78.6h-14.9l2.5-19h-8.4l-5.6,19h-14.3l26.3-78.6ZM79,134.5h6.5l3.5-27.4,1.5-6.5h-2l-1.3,6.5-8.1,27.4Z"/>
    <path class="st0" d="M124.1,86.6h21.8l-7.3,78.6h-14.9l2.5-19h-8.4l-5.6,19h-14.3l26.3-78.6ZM121.2,134.5h6.5l3.5-27.4,1.5-6.5h-2l-1.3,6.5-8.1,27.4Z"/>
    <path class="st0" d="M166.4,86.6h21.8l-7.3,78.6h-14.9l2.5-19h-8.4l-5.6,19h-14.3l26.3-78.6ZM163.4,134.5h6.5l3.5-27.4,1.5-6.5h-2l-1.3,6.5-8.1,27.4Z"/>
    <path class="st0" d="M208.6,86.6h21.8l-7.3,78.6h-14.9l2.5-19h-8.4l-5.6,19h-14.3l26.3-78.6ZM205.7,134.5h6.5l3.5-27.4,1.5-6.5h-2l-1.3,6.5-8.1,27.4Z"/>
    <path class="st0" d="M243.5,86.6h19.7c10.2,0,15.6,6.3,13.7,15.8l-3.7,17.4c-1.1,5.2-4.2,9.4-8.4,12.1l.2,33.3h-14.3l.4-30h-3.9l-6.3,30h-14.2l16.7-78.6ZM254.9,99.5l-5.1,23.6h4.3c2.6,0,4.6-1.6,5.1-4.2l3.4-15.3c.4-2.6-.9-4.2-3.4-4.2h-4.3Z"/>
    <path class="st0" d="M288.4,99.5h-8.1l2.8-12.9h30.3l-2.7,12.9h-8.2l-13.9,65.7h-14.2l13.9-65.7Z"/>
    <path class="st0" d="M317.7,86.6h14.2l-7,32.5h8.4l7-32.5h14.2l-16.7,78.6h-14.2l7.2-33.6h-8.5l-7.1,33.6h-14.2l16.7-78.6Z"/>
    <path class="st0" d="M347.2,149.5l13.5-62.9h14.2l-13.5,62.9c-.6,2.6.8,4.2,3.4,4.2s4.5-1.6,5.1-4.2l13.5-62.9h14.2l-13.5,62.9c-2.1,10.2-11,17.1-22,17.1s-16.8-6.9-14.7-17.1Z"/>
    <path class="st0" d="M403.7,86.6h19.7c10.2,0,15.6,6.3,13.7,15.8l-3.7,17.4c-1.1,5.2-4.2,9.4-8.4,12.1l.2,33.3h-14.3l.4-30h-3.9l-6.3,30h-14.2l16.7-78.6ZM415.1,99.5l-5.1,23.6h4.3c2.6,0,4.6-1.6,5.1-4.2l3.4-15.3c.5-2.6-.9-4.2-3.4-4.2h-4.3Z"/>
  </g>
</svg>