<?xml version="1.0" encoding="UTF-8"?>
<svg id="Camada_1" xmlns="http://www.w3.org/2000/svg" version="1.1" viewBox="0 0 460.5 210.8">
  <!-- Generator: Adobe Illustrator 29.8.3, SVG Export Plug-In . SVG Version: 2.1.1 Build 3)  -->
  <defs>
    <style>
      .st0 {
        fill: #fcf4e2;
      }

      .st1 {
        fill: #db2432;
      }
    </style>
  </defs>
  <path class="st0" d="M421,210.9H5.5c-3.8,0-6.4-3.7-5.2-7.2l8.1-24.5c.7-2.2,2.8-3.8,5.2-3.8h415.4c3.8,0,6.4,3.7,5.2,7.2l-8.1,24.5c-.7,2.2-2.8,3.8-5.2,3.8Z"/>
  <g>
    <path class="st1" d="M19.5,197.9l2.2-10.4c.5-2.2,2.3-3.6,4.7-3.6s3.6,1.5,3.2,3.6l-.5,2.2h-3l.4-2.1c.1-.6-.2-.9-.7-.9s-1,.3-1.1.9l-2.1,10.1c-.1.6.2.9.7.9s1-.3,1.1-.9l.8-3.9h-1l.5-2.5h3.9l-2.1,9.7h-2.1l.2-.9v-.3c.1,0-.1,0-.1,0v.3c-.6.8-1.6,1.2-2.7,1.2-1.9,0-2.9-1.3-2.5-3.3Z"/>
    <path class="st1" d="M31.6,184.1h4.2c2.2,0,3.3,1.3,2.9,3.4l-.8,3.7c-.2,1.1-.9,2-1.8,2.6v7.1s-3,0-3,0v-6.4c0,0-.7,0-.7,0l-1.3,6.4h-3l3.6-16.8ZM34,186.9l-1.1,5h.9c.6,0,1-.3,1.1-.9l.7-3.3c0-.6-.2-.9-.7-.9h-.9Z"/>
    <path class="st1" d="M42.1,184.1h4.6l-1.6,16.8h-3.2l.5-4h-1.8l-1.2,4h-3l5.6-16.8ZM41.5,194.3h1.4l.7-5.8.3-1.4h-.4l-.3,1.4-1.7,5.8Z"/>
    <path class="st1" d="M49.5,184.1h4.1c2.2,0,3.4,1.4,3,3.4l-.8,3.9c-.4,2.1-2.2,3.4-4.5,3.4h-1.1l-1.2,5.9h-3l3.6-16.8ZM51.9,186.9l-1.1,5.3h.9c.6,0,1-.3,1.1-.9l.8-3.6c0-.6-.2-.9-.7-.9h-.9Z"/>
    <path class="st1" d="M58.3,184.1h3l-1.5,6.9h1.8l1.5-6.9h3l-3.6,16.8h-3l1.5-7.2h-1.8l-1.5,7.2h-3l3.6-16.8Z"/>
    <path class="st1" d="M67.5,184.1h3l-3.6,16.8h-3l3.6-16.8Z"/>
    <path class="st1" d="M69,197.5l2.1-10.1c.5-2.2,2.3-3.6,4.7-3.6s3.6,1.5,3.2,3.6l-.7,3.5h-3l.7-3.5c.1-.6-.2-.9-.7-.9s-1,.3-1.1.9l-2.1,10.1c-.1.6.2.9.7.9s1-.3,1.1-.9l.8-3.7h3l-.8,3.7c-.5,2.2-2.3,3.6-4.7,3.6s-3.6-1.5-3.1-3.6Z"/>
    <path class="st1" d="M84.3,184.1h4.1c2.2,0,3.4,1.4,3,3.4l-2.1,9.9c-.5,2.1-2.2,3.4-4.5,3.4h-4.1l3.6-16.8ZM86.7,186.9l-2.4,11.2h.9c.5,0,1-.3,1.1-.9l2-9.5c0-.6-.2-.9-.7-.9h-.9Z"/>
    <path class="st1" d="M93.4,184.1h5.7l-.6,2.8h-2.7l-.9,4.2h2.4l-.6,2.7h-2.4l-.9,4.4h2.7l-.6,2.8h-5.7l3.6-16.8Z"/>
    <path class="st1" d="M97.1,197.5l.5-2.5h3l-.5,2.5c-.1.6.2.9.7.9s1-.3,1.1-.9l.4-1.9c.4-2-4.3-2.3-3.5-6.1l.4-2c.5-2.2,2.3-3.6,4.6-3.6s3.6,1.4,3.1,3.6l-.5,2.2h-3l.5-2.2c0-.5-.2-.8-.7-.8s-.9.3-1,.8l-.4,1.7c-.4,2,4.3,2.3,3.5,6.1l-.5,2.3c-.5,2.2-2.3,3.6-4.7,3.6s-3.6-1.5-3.1-3.6Z"/>
    <path class="st1" d="M108.9,184.1h3l-3.6,16.8h-3l3.6-16.8Z"/>
    <path class="st1" d="M110.3,197.9l2.2-10.4c.5-2.2,2.3-3.6,4.7-3.6s3.6,1.5,3.2,3.6l-.5,2.2h-3l.4-2.1c.1-.6-.2-.9-.7-.9s-1,.3-1.1.9l-2.1,10.1c-.1.6.2.9.7.9s1-.3,1.1-.9l.8-3.9h-1l.5-2.5h3.9l-2.1,9.7h-2.1l.2-.9v-.3c.1,0-.1,0-.1,0v.3c-.6.8-1.6,1.2-2.7,1.2-1.9,0-2.9-1.3-2.5-3.3Z"/>
    <path class="st1" d="M122.4,184.1h3.5v7.9s-.2,2.1-.2,2.1h.4l.2-2.1,1.7-7.9h3l-3.6,16.8h-3.4v-7.9s.2-2.1.2-2.1h-.4l-.2,2.1-1.7,7.9h-3l3.6-16.8Z"/>
    <path class="st1" d="M132.4,184.1h5.7l-.6,2.8h-2.7l-.9,4.2h2.4l-.6,2.7h-2.4l-.9,4.4h2.7l-.6,2.8h-5.7l3.6-16.8Z"/>
    <path class="st1" d="M139.2,184.1h4.2c2.2,0,3.3,1.3,2.9,3.4l-.8,3.7c-.2,1.1-.9,2-1.8,2.6v7.1s-3,0-3,0v-6.4c0,0-.7,0-.7,0l-1.3,6.4h-3l3.6-16.8ZM141.6,186.9l-1.1,5h.9c.6,0,1-.3,1.1-.9l.7-3.3c0-.6-.2-.9-.7-.9h-.9Z"/>
  </g>
  <g>
    <path class="st1" d="M175.7,184.1h3.2l-1.7,12-.4,1.7h.4l.4-1.7,3.4-12h3l-5.4,16.8h-4.6l1.7-16.8Z"/>
    <path class="st1" d="M184.9,184.1h3l-3.6,16.8h-3l3.6-16.8Z"/>
    <path class="st1" d="M186.2,197.5l.5-2.5h3l-.5,2.5c-.1.6.2.9.7.9s1-.3,1.1-.9l.4-1.9c.4-2-4.3-2.3-3.5-6.1l.4-2c.5-2.2,2.3-3.6,4.6-3.6s3.6,1.4,3.1,3.6l-.5,2.2h-3l.5-2.2c0-.5-.2-.8-.7-.8s-.9.3-1,.8l-.4,1.7c-.4,2,4.3,2.3,3.5,6.1l-.5,2.3c-.5,2.2-2.3,3.6-4.7,3.6s-3.6-1.5-3.1-3.6Z"/>
    <path class="st1" d="M195.1,197.5l2.9-13.4h3l-2.9,13.4c-.1.6.2.9.7.9s1-.3,1.1-.9l2.9-13.4h3l-2.9,13.4c-.5,2.2-2.3,3.6-4.7,3.6s-3.6-1.5-3.1-3.6Z"/>
    <path class="st1" d="M208.4,184.1h4.6l-1.6,16.8h-3.2l.5-4h-1.8l-1.2,4h-3l5.6-16.8ZM207.8,194.3h1.4l.7-5.8.3-1.4h-.4l-.3,1.4-1.7,5.8Z"/>
    <path class="st1" d="M215.8,184.1h3l-3,14h2.5l-.6,2.8h-5.6l3.6-16.8Z"/>
    <path class="st1" d="M225.6,184.1h3l-3.6,16.8h-3l3.6-16.8Z"/>
    <path class="st1" d="M230,184.1h4.1c2.2,0,3.4,1.4,3,3.4l-2.1,9.9c-.5,2.1-2.2,3.4-4.5,3.4h-4.1l3.6-16.8ZM232.4,186.9l-2.4,11.2h.9c.5,0,1-.3,1.1-.9l2-9.5c0-.6-.2-.9-.7-.9h-.9Z"/>
    <path class="st1" d="M239.1,184.1h5.7l-.6,2.8h-2.7l-.9,4.2h2.4l-.6,2.7h-2.4l-.9,4.4h2.7l-.6,2.8h-5.7l3.6-16.8Z"/>
    <path class="st1" d="M245.9,184.1h3.5v7.9s-.2,2.1-.2,2.1h.4l.2-2.1,1.7-7.9h3l-3.6,16.8h-3.4v-7.9s.2-2.1.2-2.1h-.4l-.2,2.1-1.7,7.9h-3l3.6-16.8Z"/>
    <path class="st1" d="M256.5,186.9h-1.7l.6-2.8h6.5l-.6,2.8h-1.7l-3,14h-3l3-14Z"/>
    <path class="st1" d="M262.8,184.1h3l-3.6,16.8h-3l3.6-16.8Z"/>
    <path class="st1" d="M267.8,186.9h-1.7l.6-2.8h6.5l-.6,2.8h-1.7l-3,14h-3l3-14Z"/>
    <path class="st1" d="M274,195l-.4-10.8h3.2l-.3,5.6-.4,1.8h.4l.4-1.8,2.1-5.6h3l-5,10.8-1.3,6h-3l1.3-5.9Z"/>
  </g>
  <g>
    <path class="st1" d="M312.4,184.1h5.4l-1.5,11.1-.6,2.7h.4l.6-2.7,3.2-11.1h5.3l-3.6,16.8h-3l2.6-12,.3-1.4h-.4l-.3,1.4-3.6,12h-3.9l1.5-12,.3-1.4h-.4l-.3,1.4-2.6,12h-3l3.6-16.8Z"/>
    <path class="st1" d="M323.6,197.5l2.1-10.1c.5-2.2,2.3-3.6,4.7-3.6s3.6,1.5,3.2,3.6l-2.2,10.1c-.5,2.2-2.3,3.6-4.7,3.6s-3.6-1.5-3.1-3.6ZM328.4,197.5l2.1-10.1c.1-.6-.2-.9-.7-.9s-1,.3-1.1.9l-2.1,10.1c-.1.6.2.9.7.9s1-.3,1.1-.9Z"/>
    <path class="st1" d="M336.2,186.9h-1.7l.6-2.8h6.5l-.6,2.8h-1.7l-3,14h-3l3-14Z"/>
    <path class="st1" d="M342.4,184.1h3l-3.6,16.8h-3l3.6-16.8Z"/>
    <path class="st1" d="M343.8,197.5l2.1-10.1c.5-2.2,2.3-3.6,4.7-3.6s3.6,1.5,3.2,3.6l-2.2,10.1c-.5,2.2-2.3,3.6-4.7,3.6s-3.6-1.5-3.1-3.6ZM348.7,197.5l2.1-10.1c.1-.6-.2-.9-.7-.9s-1,.3-1.1.9l-2.1,10.1c-.1.6.2.9.7.9s1-.3,1.1-.9Z"/>
    <path class="st1" d="M355.8,184.1h3.5v7.9s-.2,2.1-.2,2.1h.4l.2-2.1,1.7-7.9h3l-3.6,16.8h-3.4v-7.9s.2-2.1.2-2.1h-.4l-.2,2.1-1.7,7.9h-3l3.6-16.8Z"/>
    <path class="st1" d="M369.2,184.1h4.1c2.2,0,3.4,1.4,3,3.4l-2.1,9.9c-.5,2.1-2.2,3.4-4.5,3.4h-4.1l3.6-16.8ZM371.6,186.9l-2.4,11.2h.9c.5,0,1-.3,1.1-.9l2-9.5c0-.6-.2-.9-.7-.9h-.9Z"/>
    <path class="st1" d="M378.3,184.1h5.7l-.6,2.8h-2.7l-.9,4.2h2.4l-.6,2.7h-2.4l-.9,4.4h2.7l-.6,2.8h-5.7l3.6-16.8Z"/>
    <path class="st1" d="M382,197.5l.5-2.5h3l-.5,2.5c-.1.6.2.9.7.9s1-.3,1.1-.9l.4-1.9c.4-2-4.3-2.3-3.5-6.1l.4-2c.5-2.2,2.3-3.6,4.6-3.6s3.6,1.4,3.1,3.6l-.5,2.2h-3l.5-2.2c0-.5-.2-.8-.7-.8s-.9.3-1,.8l-.4,1.7c-.4,2,4.3,2.3,3.5,6.1l-.5,2.3c-.5,2.2-2.3,3.6-4.7,3.6s-3.6-1.5-3.1-3.6Z"/>
    <path class="st1" d="M393.8,184.1h3l-3.6,16.8h-3l3.6-16.8Z"/>
    <path class="st1" d="M395.2,197.9l2.2-10.4c.5-2.2,2.3-3.6,4.7-3.6s3.6,1.5,3.2,3.6l-.5,2.2h-3l.4-2.1c.1-.6-.2-.9-.7-.9s-1,.3-1.1.9l-2.1,10.1c-.1.6.2.9.7.9s1-.3,1.1-.9l.8-3.9h-1l.5-2.5h3.9l-2.1,9.7h-2.1l.2-.9v-.3c.1,0-.1,0-.1,0v.3c-.6.8-1.6,1.2-2.7,1.2-1.9,0-2.9-1.3-2.5-3.3Z"/>
    <path class="st1" d="M407.2,184.1h3.5v7.9s-.2,2.1-.2,2.1h.4l.2-2.1,1.7-7.9h3l-3.6,16.8h-3.4v-7.9s.2-2.1.2-2.1h-.4l-.2,2.1-1.7,7.9h-3l3.6-16.8Z"/>
  </g>
  <path class="st1" d="M160.2,185.4h4.3l-1.4,15.5h-2.9l.5-3.7h-1.7l-1.1,3.7h-2.8l5.2-15.5ZM159.6,194.8h1.3l.7-5.4.3-1.3h-.4l-.3,1.3-1.6,5.4Z"/>
  <path class="st1" d="M295.8,185.4h4.3l-1.4,15.5h-2.9l.5-3.7h-1.7l-1.1,3.7h-2.8l5.2-15.5ZM295.3,194.8h1.3l.7-5.4.3-1.3h-.4l-.3,1.3-1.6,5.4Z"/>
  <g>
    <path class="st0" d="M40.7,87.7h21.3l-7.1,77h-14.6l2.4-18.6h-8.2l-5.5,18.6h-14l25.7-77ZM37.9,134.7h6.4l3.4-26.8,1.4-6.4h-2l-1.3,6.4-7.9,26.8Z"/>
    <path class="st0" d="M84.7,87.7h21.3l-7.1,77h-14.6l2.4-18.6h-8.2l-5.5,18.6h-14l25.7-77ZM81.9,134.7h6.4l3.4-26.8,1.4-6.4h-2l-1.3,6.4-7.9,26.8Z"/>
    <path class="st0" d="M128.7,87.7h21.3l-7.1,77h-14.6l2.4-18.6h-8.2l-5.5,18.6h-14l25.7-77ZM125.9,134.7h6.4l3.4-26.8,1.4-6.4h-2l-1.3,6.4-7.9,26.8Z"/>
    <path class="st0" d="M172.7,87.7h21.3l-7.1,77h-14.6l2.4-18.6h-8.2l-5.5,18.6h-14l25.7-77ZM169.8,134.7h6.4l3.4-26.8,1.4-6.4h-2l-1.3,6.4-7.9,26.8Z"/>
    <path class="st0" d="M216.7,87.7h21.3l-7.1,77h-14.6l2.4-18.6h-8.2l-5.5,18.6h-14l25.7-77ZM213.8,134.7h6.4l3.4-26.8,1.4-6.4h-2l-1.3,6.4-7.9,26.8Z"/>
    <path class="st0" d="M260.7,87.7h21.3l-7.1,77h-14.6l2.4-18.6h-8.2l-5.5,18.6h-14l25.7-77ZM257.8,134.7h6.4l3.4-26.8,1.4-6.4h-2l-1.3,6.4-7.9,26.8Z"/>
    <path class="st0" d="M296.1,87.7h19.2c10,0,15.3,6.2,13.4,15.5l-3.6,17.1c-1.1,5.1-4.1,9.2-8.2,11.9l.2,32.6h-14l.4-29.4h-3.8l-6.2,29.4h-13.9l16.4-77ZM307.2,100.3l-4.9,23.1h4.2c2.5,0,4.5-1.5,4.9-4.1l3.3-15c.4-2.5-.9-4.1-3.3-4.1h-4.2Z"/>
    <path class="st0" d="M341.1,100.3h-7.9l2.7-12.7h29.7l-2.6,12.7h-8l-13.6,64.4h-13.9l13.6-64.4Z"/>
    <path class="st0" d="M371,87.7h13.9l-6.8,31.8h8.2l6.8-31.8h13.9l-16.4,77h-13.9l7-32.9h-8.4l-6.9,32.9h-13.9l16.4-77Z"/>
    <path class="st0" d="M401.2,149.3l13.2-61.6h13.9l-13.2,61.6c-.5,2.5.8,4.1,3.3,4.1s4.4-1.5,4.9-4.1l13.2-61.6h13.9l-13.2,61.6c-2.1,10-10.8,16.7-21.6,16.7s-16.5-6.7-14.4-16.7Z"/>
  </g>
  <g>
    <path class="st0" d="M68.3,0h22.4l-7.5,81h-15.4l2.5-19.5h-8.7l-5.8,19.5h-14.7L68.3,0ZM65.3,49.4h6.7l3.6-28.2,1.5-6.7h-2.1l-1.4,6.7-8.3,28.2Z"/>
    <path class="st0" d="M114.6,0h22.4l-7.5,81h-15.4l2.5-19.5h-8.7l-5.8,19.5h-14.7L114.6,0ZM111.6,49.4h6.7l3.6-28.2,1.5-6.7h-2.1l-1.4,6.7-8.3,28.2Z"/>
    <path class="st0" d="M160.8,0h22.4l-7.5,81h-15.4l2.5-19.5h-8.7l-5.8,19.5h-14.7L160.8,0ZM157.8,49.4h6.7l3.6-28.2,1.5-6.7h-2.1l-1.4,6.7-8.3,28.2Z"/>
    <path class="st0" d="M207,0h22.4l-7.5,81h-15.4l2.5-19.5h-8.7l-5.8,19.5h-14.7L207,0ZM204,49.4h6.7l3.6-28.2,1.5-6.7h-2.1l-1.4,6.7-8.3,28.2Z"/>
    <path class="st0" d="M253.2,0h22.4l-7.5,81h-15.4l2.5-19.5h-8.7l-5.8,19.5h-14.7L253.2,0ZM250.2,49.4h6.7l3.6-28.2,1.5-6.7h-2.1l-1.4,6.7-8.3,28.2Z"/>
    <path class="st0" d="M299.5,0h22.4l-7.5,81h-15.4l2.5-19.5h-8.7l-5.8,19.5h-14.7L299.5,0ZM296.5,49.4h6.7l3.6-28.2,1.5-6.7h-2.1l-1.4,6.7-8.3,28.2Z"/>
    <path class="st0" d="M345.7,0h22.4l-7.5,81h-15.4l2.5-19.5h-8.7l-5.8,19.5h-14.7L345.7,0ZM342.7,49.4h6.7l3.6-28.2,1.5-6.7h-2.1l-1.4,6.7-8.3,28.2Z"/>
    <path class="st0" d="M391.9,0h22.4l-7.5,81h-15.4l2.5-19.5h-8.7l-5.8,19.5h-14.7L391.9,0ZM388.9,49.4h6.7l3.6-28.2,1.5-6.7h-2.1l-1.4,6.7-8.3,28.2Z"/>
    <path class="st0" d="M438.1,0h22.4l-7.5,81h-15.4l2.5-19.5h-8.7l-5.8,19.5h-14.7L438.1,0ZM435.1,49.4h6.7l3.6-28.2,1.5-6.7h-2.1l-1.4,6.7-8.3,28.2Z"/>
  </g>
</svg>