<?xml version="1.0" encoding="UTF-8"?>
<svg id="Camada_1" xmlns="http://www.w3.org/2000/svg" version="1.1" viewBox="0 0 830.6 515.9">
  <!-- Generator: Adobe Illustrator 29.8.3, SVG Export Plug-In . SVG Version: 2.1.1 Build 3)  -->
  <defs>
    <style>
      .st0 {
        fill: #feb21a;
      }

      .st1 {
        fill: #fdf4e3;
      }
    </style>
  </defs>
  <path class="st0" d="M740.6,515.8H38.5c-22.9,0-40.7-20-38-42.7L52.1,33.7C54.3,14.5,70.7,0,90.1,0h702.1c22.9,0,40.7,20,38,42.7l-51.5,439.3c-2.3,19.3-18.6,33.8-38,33.8Z"/>
  <g>
    <g>
      <path class="st1" d="M137.5,80.1h24.7l-24.5,114.7h20.8l-4.7,22.5h-45.5l29.2-137.2Z"/>
      <path class="st1" d="M190.1,80.1h46.7l-4.7,22.5h-22.2l-7.3,34.1h19.8l-4.7,22h-19.8l-7.6,36.1h22.2l-4.9,22.5h-46.7l29.2-137.2Z"/>
      <path class="st1" d="M252.4,102.7h-14.1l4.9-22.5h52.9l-4.7,22.5h-14.3l-24.3,114.7h-24.7l24.3-114.7Z"/>
      <path class="st1" d="M301.6,109.3h-5.9l6.3-29.2h24.7l-5.5,25.9-13.5,20.4h-16.1l10-17.1Z"/>
      <path class="st1" d="M309.7,189.9l4.3-20.4h24.7l-4.3,20.4c-1,4.5,1.4,7.3,5.9,7.3s7.8-2.7,8.8-7.3l3.5-15.9c3.5-16.3-35.1-18.6-28.4-50.2l3.5-16.5c3.7-17.8,18.8-29.6,37.8-29.6s29.4,11.8,25.5,29.6l-3.9,18.2h-24.7l4.1-18.4c.6-4.1-1.6-6.9-5.7-6.9s-7.6,2.5-8.4,6.9l-2.9,13.7c-3.3,16.5,35.1,18.6,28.4,50.2l-4.1,18.8c-3.7,17.8-19.2,29.8-38.4,29.8s-29.4-12-25.7-29.8Z"/>
      <path class="st1" d="M430.2,80.1h26.1l-14.7,98.4-2.4,11.4h3.1l2.5-11.4,27.3-98.4h33.5l-14.7,98.4-2.4,11.4h3.3l2.4-11.4,27.4-98.4h24.7l-43.7,137.2h-35.3l12.5-90.6,4.9-22.2h-3.5l-4.7,22.2-25.9,90.6h-35.3l14.7-137.2Z"/>
      <path class="st1" d="M528.3,189.9l17.4-82.5c3.9-17.6,19.2-29.6,38.4-29.6s29.6,12,25.9,29.6l-17.6,82.5c-3.7,17.8-19.2,29.8-38.4,29.8s-29.6-12-25.7-29.8ZM567.7,189.9l17.4-82.3c1-4.5-1.4-7.3-5.9-7.3s-7.8,2.7-8.8,7.3l-17.4,82.3c-1,4.5,1.4,7.3,5.7,7.3s8-2.7,9-7.3Z"/>
      <path class="st1" d="M626.5,80.1h34.3c17.8,0,27.3,11,23.9,27.6l-6.5,30.4c-2,9-7.3,16.5-14.7,21.2l.4,58h-24.9l.8-52.3h-6.9l-11,52.3h-24.7l29.2-137.2ZM646.3,102.7l-8.8,41.2h7.5c4.5,0,8-2.7,8.8-7.3l5.9-26.7c.8-4.5-1.6-7.3-5.9-7.3h-7.5Z"/>
      <path class="st1" d="M700.4,80.1h24.7l-12.2,56.7h4.5l25.7-56.7h26.9l-33.5,67.1,5.9,70.2h-28l-1.4-58.6h-4.7l-12.4,58.6h-24.7l29.2-137.2Z"/>
    </g>
    <g>
      <path class="st1" d="M82,272.8h-19.3l6.7-30.8h72.3l-6.4,30.8h-19.6l-33.2,156.8h-33.8l33.2-156.8Z"/>
      <path class="st1" d="M117.9,392.1l23.8-112.8c5.4-24.1,26.3-40.5,52.5-40.5s40.5,16.3,35.4,40.5l-24.1,112.8c-5.1,24.4-26.3,40.7-52.5,40.7s-40.5-16.3-35.1-40.7ZM171.8,392.1l23.8-112.5c1.3-6.2-1.9-9.9-8-9.9s-10.7,3.8-12.1,9.9l-23.8,112.5c-1.3,6.2,1.9,9.9,7.8,9.9s11-3.8,12.3-9.9Z"/>
      <path class="st1" d="M218.4,396.1l24.7-116.8c5.4-24.1,26.3-40.5,52.5-40.5s40.5,16.3,35.4,40.5l-5.1,24.1h-33.8l4.8-23.8c1.3-6.2-1.9-9.9-8-9.9s-10.7,3.8-12.1,9.9l-23.8,112.5c-1.3,6.2,2.1,9.9,8.3,9.9s11.3-3.8,12.6-9.9l9.4-43.7h-10.7l5.6-27.9h43.9l-23,109.1h-23l1.9-9.9,1.6-3.2h-3.2l-1.3,3.2c-5.9,8.6-16.9,13.1-28.9,13.1-21.4,0-32.4-14.7-27.6-36.7Z"/>
      <path class="st1" d="M353.7,242h63.8l-6.4,30.8h-30.3l-9.9,46.6h27.1l-6.4,30h-27.1l-10.5,49.3h30.3l-6.7,30.8h-63.8l39.9-187.6Z"/>
      <path class="st1" d="M438.9,272.8h-19.3l6.7-30.8h72.3l-6.4,30.8h-19.6l-33.2,156.8h-33.8l33.2-156.8Z"/>
      <path class="st1" d="M508.9,242h33.8l-16.6,77.4h20.1l16.6-77.4h33.8l-39.9,187.6h-33.8l17.1-80.1h-20.4l-16.9,80.1h-33.8l39.9-187.6Z"/>
      <path class="st1" d="M612,242h63.8l-6.4,30.8h-30.3l-9.9,46.6h27.1l-6.4,30h-27.1l-10.5,49.3h30.3l-6.7,30.8h-63.8l39.9-187.6Z"/>
      <path class="st1" d="M688.1,242h46.9c24.4,0,37.2,15,32.7,37.8l-8.8,41.5c-2.7,12.3-9.9,22.5-20.1,28.9l.5,79.3h-34l1.1-71.5h-9.4l-15,71.5h-33.8l39.9-187.6ZM715.2,272.8l-12.1,56.3h10.2c6.2,0,11-3.8,12.1-9.9l8-36.4c1.1-6.2-2.1-9.9-8-9.9h-10.2Z"/>
    </g>
  </g>
</svg>